<svg width="156" height="34" viewBox="0 0 156 34" fill="none" xmlns="http://www.w3.org/2000/svg">
<g clip-path="url(#clip0_34_89)">
<path d="M34.2252 28.8091V0.644623H43.4463V21.4474H55.7919V28.8109H34.2252V28.8091Z" fill="#24262C"/>
<path d="M72.3165 29.4537C70.0757 29.4537 68.0129 29.0922 66.1248 28.3675C64.2366 27.6427 62.6009 26.617 61.2211 25.2885C59.8396 23.9601 58.7658 22.3984 57.9981 20.6016C57.2304 18.8048 56.8448 16.846 56.8448 14.7269C56.8448 12.6078 57.2287 10.6169 57.9981 8.83256C58.7658 7.04824 59.8413 5.49364 61.2211 4.16519C62.6009 2.83675 64.2349 1.81103 66.1248 1.08626C68.0129 0.361494 70.0636 0 72.2785 0C74.4934 0 76.5752 0.361494 78.4513 1.08626C80.3273 1.81103 81.9544 2.83675 83.3342 4.16519C84.714 5.49364 85.7895 7.05002 86.5572 8.83256C87.3249 10.6169 87.7104 12.581 87.7104 14.7269C87.7104 16.8727 87.3266 18.8048 86.5572 20.6016C85.7877 22.3984 84.714 23.9619 83.3342 25.2885C81.9526 26.617 80.3256 27.6427 78.4513 28.3675C76.5752 29.0922 74.5315 29.4537 72.3165 29.4537ZM72.2785 21.768C73.1379 21.768 73.9384 21.6077 74.6819 21.2854C75.4237 20.9631 76.0755 20.5001 76.6358 19.8982C77.196 19.2945 77.6317 18.5573 77.9447 17.6847C78.2576 16.8139 78.4132 15.8274 78.4132 14.7269C78.4132 13.6264 78.2576 12.6416 77.9447 11.769C77.6317 10.8982 77.196 10.1592 76.6358 9.55554C76.0755 8.95187 75.4254 8.48887 74.6819 8.16833C73.9401 7.84602 73.1379 7.68575 72.2785 7.68575C71.4192 7.68575 70.6186 7.84602 69.8751 8.16833C69.1333 8.49065 68.4815 8.95365 67.9213 9.55554C67.361 10.1592 66.9253 10.8965 66.6124 11.769C66.2994 12.6416 66.1438 13.6264 66.1438 14.7269C66.1438 15.8274 66.2994 16.8121 66.6124 17.6847C66.9253 18.5573 67.361 19.2945 67.9213 19.8982C68.4815 20.5019 69.1316 20.9649 69.8751 21.2854C70.6169 21.6077 71.4192 21.768 72.2785 21.768Z" fill="#24262C"/>
<path d="M104.157 29.4537C99.9643 29.4537 96.6947 28.2873 94.35 25.9527C92.0054 23.6182 90.8331 20.3469 90.8331 16.1354V0.644623H100.054V15.8541C100.054 17.9999 100.431 19.5224 101.187 20.4217C101.942 21.321 102.957 21.7697 104.233 21.7697C105.509 21.7697 106.557 21.321 107.301 20.4217C108.043 19.5242 108.414 18.0017 108.414 15.8541V0.644623H117.478V16.1354C117.478 20.3469 116.306 23.62 113.961 25.9527C111.617 28.2855 108.349 29.4537 104.156 29.4537H104.157Z" fill="#24262C"/>
<path d="M127.052 28.8091V8.00627H119.043V0.644623H144.282V8.00806H136.273V28.8109H127.052V28.8091Z" fill="#24262C"/>
<path d="M156 4.22395C156 6.35195 154.378 8.0223 152.269 8.0223C150.159 8.0223 148.515 6.35195 148.515 4.22395C148.515 2.09594 150.182 0.471893 152.269 0.471893C154.356 0.471893 156 2.14224 156 4.22395ZM149.447 4.22395C149.447 5.8943 150.647 7.22096 152.289 7.22096C153.932 7.22096 155.066 5.8943 155.066 4.2471C155.066 2.5999 153.889 1.22693 152.267 1.22693C150.645 1.22693 149.445 2.57675 149.445 4.22395H149.447ZM151.691 6.18991H150.847V2.43785C151.181 2.3684 151.646 2.32388 152.246 2.32388C152.934 2.32388 153.246 2.43785 153.512 2.59812C153.712 2.75839 153.868 3.05577 153.868 3.42261C153.868 3.83396 153.557 4.1545 153.112 4.29162V4.33792C153.469 4.47504 153.668 4.74927 153.778 5.25323C153.889 5.82485 153.956 6.05457 154.044 6.19169H153.133C153.023 6.05457 152.955 5.71088 152.844 5.27638C152.777 4.86502 152.556 4.6816 152.089 4.6816H151.689V6.19169L151.691 6.18991ZM151.712 4.06368H152.111C152.578 4.06368 152.955 3.90341 152.955 3.51521C152.955 3.17152 152.711 2.94358 152.177 2.94358C151.956 2.94358 151.8 2.96673 151.71 2.98988V4.06546L151.712 4.06368Z" fill="#24262C"/>
<path d="M29.7123 8.83256C28.9429 7.04824 27.8691 5.49364 26.4893 4.16519C25.1078 2.83675 23.4807 1.81103 21.6064 1.08626C19.7304 0.361494 17.6728 0 15.4319 0C13.1911 0 11.1663 0.361494 9.27818 1.08626C7.39004 1.81103 5.75434 2.83675 4.37454 4.16519C2.99302 5.49364 1.91927 7.05002 1.15156 8.83256C0.383853 10.6169 0 12.5811 0 14.7269C0 16.8727 0.383853 18.8048 1.15329 20.6016C1.92099 22.3984 2.99648 23.9619 4.37627 25.2885C5.75607 26.617 7.39004 27.6427 9.27991 28.3675C9.61362 28.4957 9.95598 28.6079 10.3001 28.7129L15.4337 34L20.5552 28.7254C20.9114 28.6168 21.2624 28.501 21.6064 28.3675C23.4825 27.6427 25.1095 26.617 26.4893 25.2885C27.8691 23.9601 28.9446 22.3984 29.7123 20.6016C30.48 18.8048 30.8656 16.846 30.8656 14.7269C30.8656 12.6078 30.4817 10.6169 29.7123 8.83256ZM21.0981 17.6847C20.7851 18.5573 20.3494 19.2945 19.7892 19.8982C19.229 20.5019 18.5788 20.9649 17.8353 21.2854C17.0936 21.6077 16.2913 21.768 15.4319 21.768C14.5726 21.768 13.772 21.6077 13.0285 21.2854C12.2868 20.9631 11.6349 20.5001 11.0747 19.8982C10.5145 19.2945 10.0787 18.5573 9.76578 17.6847C9.45282 16.8139 9.2972 15.8274 9.2972 14.7269C9.2972 13.6264 9.45282 12.6416 9.76578 11.769C10.0787 10.8982 10.5145 10.1592 11.0747 9.55554C11.6349 8.95187 12.285 8.48887 13.0285 8.16833C13.7703 7.84602 14.5726 7.68575 15.4319 7.68575C16.2913 7.68575 17.0918 7.84602 17.8353 8.16833C18.5771 8.49065 19.229 8.95365 19.7892 9.55554C20.3494 10.1592 20.7851 10.8965 21.0981 11.769C21.4111 12.6416 21.5667 13.6264 21.5667 14.7269C21.5667 15.8274 21.4111 16.8121 21.0981 17.6847Z" fill="#24262C"/>
</g>
<defs>
<clipPath id="clip0_34_89">
<rect width="156" height="34" fill="white"/>
</clipPath>
</defs>
</svg>
