<svg width="74" height="64" viewBox="0 0 74 64" fill="none" xmlns="http://www.w3.org/2000/svg">
<path d="M7.07559 59.3002C7.63283 58.6846 7.77538 57.784 7.77538 57.3174C7.77538 55.0755 6.79049 54.0388 4.22462 54.0388H1.34772C1.07558 54.0518 0.939514 54.1878 0.939514 54.46V63.1879C0.939514 63.447 1.08854 63.5961 1.34772 63.5961H4.72354C7.28942 63.5961 8.04104 62.7732 8.04104 61.082C8.04104 60.2332 7.63283 59.5529 7.06911 59.2937L7.07559 59.3002ZM3.29157 56.7991C3.29157 56.5269 3.4406 56.3909 3.69978 56.3909H4.43844C5.09287 56.3909 5.42332 56.4751 5.42332 57.3174C5.42332 58.1598 5.09287 58.244 4.43844 58.244H3.69978C3.4406 58.244 3.29157 58.1079 3.29157 57.8358V56.7991ZM4.54859 61.6587H3.68682C3.42764 61.6587 3.27861 61.5226 3.27861 61.2505V60.622C3.27861 60.3498 3.42764 60.2138 3.68682 60.2138H4.57451C5.22894 60.2138 5.53347 60.311 5.53347 60.9524C5.53347 61.5939 5.20302 61.6652 4.54859 61.6652V61.6587Z" fill="#BBBCBE"/>
<path d="M18.7647 54.0388H17.1383C16.8921 54.0388 16.7171 54.1619 16.6847 54.3952L15.9072 60.0907C15.8813 60.2267 15.7711 60.2267 15.7452 60.0907L14.8316 54.3952C14.7927 54.1619 14.6243 54.0388 14.378 54.0388H13.2053C12.959 54.0388 12.797 54.1619 12.7517 54.3952L11.8381 60.0907C11.8122 60.2267 11.702 60.2267 11.6761 60.0907L10.8986 54.3952C10.8726 54.1619 10.6912 54.0388 10.445 54.0388H8.81864C8.53354 54.0388 8.39747 54.2008 8.44931 54.4924L10.1275 63.2527C10.1664 63.4859 10.3348 63.609 10.5811 63.609H12.5055C12.7517 63.609 12.9007 63.4859 12.959 63.2527L13.7107 59.8898C13.7366 59.7537 13.8467 59.7537 13.8726 59.8898L14.6243 63.2527C14.6761 63.4859 14.8316 63.609 15.0778 63.609H17.0022C17.2485 63.609 17.4104 63.4859 17.4558 63.2527L19.134 54.4924C19.1858 54.2073 19.0498 54.0388 18.7647 54.0388Z" fill="#BBBCBE"/>
<path d="M26.9482 57.959H20.689C20.4299 57.959 20.2808 58.0951 20.2808 58.3672V59.8964C20.2808 60.1555 20.4299 60.3046 20.689 60.3046H26.9482C27.2204 60.3046 27.3564 60.1555 27.3564 59.8964V58.3672C27.3564 58.0951 27.2204 57.959 26.9482 57.959Z" fill="#BBBCBE"/>
<path d="M33.6999 58.5357C33.648 58.4644 33.661 58.4126 33.6999 58.3478L36.4601 54.5508C36.6545 54.2657 36.5444 54.0454 36.201 54.0454H34.1794C33.9591 54.0454 33.81 54.1296 33.6869 54.3046L31.5422 57.2528C31.4709 57.3629 31.3802 57.337 31.3802 57.2009V54.4536C31.3802 54.1815 31.2442 54.0454 30.972 54.0454H29.4169C29.1578 54.0454 29.0087 54.1815 29.0087 54.4536V63.1944C29.0087 63.4536 29.1578 63.6027 29.4169 63.6027H30.972C31.2442 63.6027 31.3802 63.4536 31.3802 63.1944V61.6783C31.3802 61.607 31.3932 61.5551 31.4321 61.5033L31.9893 60.7387C32.0411 60.6545 32.1254 60.6545 32.1837 60.7387L33.8748 63.337C33.9979 63.5314 34.147 63.6091 34.3673 63.6091H36.4148C36.7452 63.6091 36.8684 63.3888 36.674 63.1167L33.6934 58.5422L33.6999 58.5357Z" fill="#BBBCBE"/>
<path d="M43.2571 60.175C43.2312 60.1037 43.2441 60.0389 43.296 60.0001C44.0217 59.4817 44.3327 58.594 44.3327 57.324C44.3327 55.0821 43.3478 54.0454 40.918 54.0454H37.9245C37.6782 54.0454 37.5033 54.2204 37.5033 54.4666V63.1815C37.5033 63.4277 37.6782 63.6027 37.9245 63.6027H39.4536C39.6998 63.6027 39.8748 63.4277 39.8748 63.1815V61.0238C39.8748 60.7776 40.0497 60.6027 40.296 60.6027H40.8402C40.8791 60.6027 40.9245 60.6286 40.9504 60.6739L42.3694 63.4212C42.4212 63.5443 42.5443 63.6156 42.6869 63.6156H44.242C44.6631 63.6156 44.8834 63.2333 44.6955 62.877L43.2506 60.188L43.2571 60.175ZM41.0022 58.2441H40.3024C40.0562 58.2441 39.8813 58.0692 39.8813 57.823V56.8122C39.8813 56.5659 40.0562 56.391 40.3024 56.391H41.0022C41.6566 56.391 41.9871 56.4752 41.9871 57.3176C41.9871 58.1599 41.6566 58.2441 41.0022 58.2441Z" fill="#BBBCBE"/>
<path d="M47.5206 54.0388H46.0173C45.7582 54.0388 45.6091 54.1749 45.6091 54.447V63.1879C45.6091 63.447 45.7582 63.5961 46.0173 63.5961H47.5206C47.7927 63.5961 47.9288 63.447 47.9288 63.1879V54.447C47.9288 54.1749 47.7927 54.0388 47.5206 54.0388Z" fill="#BBBCBE"/>
<path d="M56.1513 54.0388H54.6221C54.3629 54.0388 54.2139 54.1749 54.2139 54.447V58.8596C54.2139 58.9956 54.1037 59.0215 54.0519 58.8984L52.1923 54.3498C52.0951 54.1295 51.9461 54.0388 51.7128 54.0388H49.7042C49.445 54.0388 49.296 54.1749 49.296 54.447V63.1879C49.296 63.447 49.445 63.5961 49.7042 63.5961H51.2333C51.5055 63.5961 51.6415 63.447 51.6415 63.1879V58.7753C51.6415 58.6393 51.7517 58.6133 51.8035 58.7364L53.6631 63.2851C53.7603 63.5054 53.9094 63.5961 54.1426 63.5961H56.1513C56.4234 63.5961 56.5595 63.447 56.5595 63.1879V54.447C56.5595 54.1749 56.4234 54.0388 56.1513 54.0388Z" fill="#BBBCBE"/>
<path d="M64.2442 58.2765H61.5099C61.2507 58.2765 61.1017 58.4126 61.1017 58.6847V59.7798C61.1017 60.039 61.2507 60.188 61.5099 60.188H62.3004C62.3004 60.8554 62.2291 61.4968 61.2183 61.4968C60.2075 61.4968 60.1362 60.8554 60.1362 59.8057V57.8359C60.1362 56.7863 60.2075 56.1448 61.2183 56.1448C61.9958 56.1448 62.2291 56.5271 62.2809 57.1815C62.3069 57.4666 62.4559 57.5897 62.7345 57.5379L64.2766 57.1945C64.5228 57.1426 64.6459 56.9871 64.633 56.7409C64.5617 55.6783 64.0887 53.7927 61.2183 53.7927C57.9786 53.7927 57.7906 56.2096 57.7906 57.1102V60.5249C57.7906 61.4256 57.985 63.8424 61.2183 63.8424C64.4516 63.8424 64.6459 61.4256 64.6459 60.5249V58.6783C64.6459 58.4061 64.5099 58.2701 64.2377 58.2701L64.2442 58.2765Z" fill="#BBBCBE"/>
<path d="M68.1773 56.7994C68.1254 56.4884 68.4494 56.1709 68.9807 56.1709C69.6222 56.1709 70.0757 56.5273 70.1665 57.0845C70.2053 57.3567 70.3414 57.4798 70.62 57.4279L72.1751 57.0845C72.4213 57.0327 72.5444 56.8772 72.5315 56.6309C72.4472 55.6461 71.7928 53.8188 68.9807 53.8188C65.9224 53.8188 65.6762 56.2357 65.6891 56.6439C65.6891 59.7865 69.8036 59.5273 70.0628 60.6871C70.147 61.0564 69.6546 61.4517 68.9807 61.4517C68.3068 61.4517 67.8338 61.0694 67.7755 60.415C67.7496 60.1299 67.6006 60.0068 67.322 60.0586L65.7798 60.402C65.5336 60.4539 65.4105 60.6094 65.4235 60.8556C65.4947 61.9182 66.1038 63.8037 68.9742 63.8037C72.214 63.8037 72.674 61.3869 72.674 60.9787C72.674 57.8361 68.3587 57.8621 68.1643 56.7994H68.1773Z" fill="#BBBCBE"/>
<path d="M72.6805 0H0V50.6243H62.2355C68.5141 50.6243 73.62 45.5184 73.62 39.2398V0H72.6805ZM72.6805 39.2398C72.6805 40.445 72.4731 41.5983 72.0973 42.6739C71.4688 44.4688 70.3673 46.0368 68.9418 47.2355C67.1275 48.7582 64.7884 49.6847 62.229 49.6847H0.939526V0.939526H72.6869V39.2398H72.6805Z" fill="#BBBCBE"/>
<path d="M70.8079 39.2398V2.8186H2.81854V47.8057H62.242C66.9655 47.8057 70.8079 43.9634 70.8079 39.2398ZM21.959 39.823C21.2527 40.0562 20.8056 40.6912 20.0993 40.8986C20.0475 40.9115 19.9698 40.9569 19.9698 40.9893C19.8985 41.6437 19.2829 42.0454 19.1663 42.674C19.1145 42.9591 19.1145 43.2442 19.3931 43.4515C19.5356 43.5616 19.5486 43.7431 19.4968 43.9051C19.4449 44.067 19.2894 44.1124 19.1339 44.1254C18.8877 44.1383 18.6415 44.1383 18.3952 44.1383C16.6458 44.1383 14.9028 44.1383 13.1533 44.1383C12.9525 44.1383 12.6803 44.2485 12.5961 43.9439C12.5183 43.6459 12.7062 43.458 12.946 43.3219C13.0432 43.2701 13.1404 43.2312 13.2635 43.1729C13.2764 43.0951 13.3024 43.0368 13.2959 42.985C13.0561 41.7798 13.0173 40.5228 12.4017 39.4083C12.3045 39.2269 12.2203 39.039 12.0972 38.877C11.8769 38.5789 11.8963 38.2938 12.0129 37.9634C12.311 37.147 12.7516 36.8683 13.6328 36.959C13.7754 36.972 13.8272 37.0692 13.9114 37.147C14.0216 37.0368 13.9957 36.9202 13.9697 36.7971C13.5421 36.5573 13.2894 36.2269 13.2505 35.6955C13.2246 35.3262 12.8553 35.0476 12.8682 34.6523C12.6544 34.5552 12.3823 34.6005 12.3434 34.3025C12.3045 34.0174 12.473 33.8359 12.6868 33.6999C12.8423 33.5962 12.9395 33.486 12.9784 33.2917C13.0691 32.8316 13.3931 32.5919 13.8337 32.54C14.3391 32.4752 14.8445 32.5076 15.3369 32.6372C15.7322 32.7409 15.946 32.9742 15.9071 33.4083C15.8877 33.6221 15.9071 33.8424 15.9071 34.0627C16.1339 34.1858 16.2764 34.1016 16.419 33.9526C16.6976 33.6675 17.0475 33.5573 17.4298 33.6999C17.6501 33.7776 17.8186 33.7387 18 33.6156C18.2138 33.4666 18.4406 33.3435 18.6933 33.2657C19.1274 33.1361 19.4255 33.3241 19.4773 33.7711C19.5032 33.985 19.4903 34.2053 19.4838 34.4256C19.4708 34.918 19.6976 35.2679 20.1123 35.5141C20.2289 35.5854 20.3585 35.6631 20.3974 35.7992C20.6112 36.5638 21.2333 37.1858 21.162 38.0541C21.1425 38.2549 21.2851 38.3716 21.4536 38.4558C21.6479 38.553 21.8488 38.6502 22.0302 38.7668C22.4644 39.0454 22.4514 39.6804 21.9654 39.8424L21.959 39.823ZM32.7214 40.3802C32.9287 40.9115 32.9028 41.2031 32.4233 41.5789C32.1512 41.7927 31.8531 41.6048 31.581 41.4429C31.1469 41.6243 30.8942 41.9936 30.622 42.3565C30.784 42.7647 30.8488 43.2118 31.3866 43.3219C31.6069 43.3673 31.6199 43.6005 31.581 43.8014C31.5421 44.0152 31.419 44.1318 31.1858 44.1318C30.6544 44.1318 30.1231 44.1318 29.5853 44.1318C29.4881 44.1318 29.365 44.1448 29.3197 44.0606C29.1771 43.8143 28.9568 43.8143 28.7236 43.8273C28.3931 43.8467 28.257 43.6264 28.2052 43.3543C28.1469 43.0562 28.1858 42.7647 28.3413 42.4861C28.5421 42.1297 28.7171 41.7603 28.8985 41.391C28.9763 41.2355 29.0475 41.0865 28.9503 40.8921C28.8467 40.6848 29.0151 40.5811 29.1836 40.4904C29.3261 40.4126 29.5464 40.445 29.5983 40.2247C29.4752 40.0692 29.3326 40.1405 29.216 40.1729C28.73 40.296 28.2441 40.4321 27.7581 40.5681C27.6544 40.6005 27.5313 40.6329 27.4924 40.7431C27.2721 41.3197 26.8445 41.8316 26.9028 42.5055C26.9482 43.0238 26.8639 43.5098 26.54 43.9375C26.4428 44.067 26.3456 44.1448 26.1706 44.1448C25.2311 44.1448 24.2851 44.1448 23.3456 44.1448C23.2095 44.1448 23.067 44.1448 22.9892 44.0087C22.9698 43.918 23.0216 43.8662 23.0799 43.8403C23.4557 43.6524 23.5853 43.3349 23.5788 42.9331C23.5788 42.7582 23.6112 42.5832 23.6825 42.4148C23.8575 42.026 23.5918 41.0411 23.2549 40.7819C23.1382 40.6912 23.0086 40.6135 22.8791 40.5357C22.3089 40.1664 22.2181 39.7841 22.6328 39.2463C22.7819 39.0519 22.8596 38.864 22.8726 38.6178C22.8855 38.2614 23.041 37.9569 23.2873 37.7107C23.4881 37.5098 23.5464 37.283 23.5464 37.0109C23.5335 36.039 23.5464 35.0735 23.527 34.1016C23.527 33.7776 23.6177 33.5184 23.8121 33.2722C24.324 32.6502 24.9395 32.1642 25.6976 31.8726C25.7365 31.5551 25.7365 31.283 25.4773 31.0433C25.1987 30.7841 25.3153 30.4796 25.5292 30.2398C25.6717 30.0843 25.7559 29.9418 25.7106 29.7474C26.838 29.0152 27.486 28.9958 28.4385 29.6437C29.1512 30.1297 29.1642 30.1621 28.9309 31.0109C29.1901 31.1081 29.3326 30.9396 29.4817 30.7841C29.8445 30.4083 30.4277 30.3888 30.7192 30.8165C30.9525 31.1599 31.2311 31.4774 31.3866 31.8791C31.7819 32.8899 31.7819 32.9094 31.0821 33.661C31.108 33.9396 31.3477 34.0757 31.5227 34.2571C31.3737 35.0152 31.756 35.7539 31.5227 36.5379C31.9244 36.5379 32.229 36.6092 32.4946 36.8295C33.0519 37.296 33.1166 38.0735 32.7603 38.702C32.4557 39.2269 32.5141 39.8359 32.7344 40.3932L32.7214 40.3802ZM60.8035 28.1858C60.4601 28.1858 60.1232 28.1858 59.7798 28.1858C59.4169 28.1858 59.2225 28.3348 59.229 28.7236C59.229 28.9115 59.3132 29.1901 59.0217 29.2225C58.7366 29.2549 58.5811 29.0605 58.5746 28.7625C58.2376 28.8143 58.2117 29.0217 58.2636 29.2744C59.0605 29.9158 59.2484 30.3759 58.9957 31.0303C58.7949 31.5487 58.27 31.8921 57.7063 31.8597C57.1296 31.8273 56.6502 31.4191 56.5141 30.8489C56.3651 30.2074 56.6242 29.7279 57.3823 29.2679C57.3953 29.0411 57.2722 29.0022 57.0778 29.0217C55.1858 29.1966 53.3003 29.3651 51.4083 29.5335C51.188 29.553 51.013 29.6048 50.851 29.7992C50.5659 30.1556 50.2225 30.0908 49.8921 29.6502C49.2376 29.7085 48.5573 29.7603 47.8834 29.8446C47.7214 29.864 47.5724 30.0001 47.4234 30.0908C46.9892 30.3564 46.581 30.4083 46.1339 30.0908C45.8165 29.8705 45.4212 30.0325 45.013 29.9936C45.0713 30.5703 44.9288 31.0497 44.4622 31.3802C44.1966 31.5681 43.8985 31.6459 43.5681 31.607C42.8164 31.5163 42.3953 30.9461 42.4147 30.0325C42.2787 30.013 42.1944 30.1102 42.1037 30.1685C42 30.2333 41.9028 30.3046 41.8186 30.3694C41.7409 30.797 41.7927 31.121 42.1361 31.445C42.6674 31.9374 42.5637 32.8251 42 33.2981C41.4234 33.7776 40.5551 33.6675 40.1145 33.0584C39.6804 32.4688 39.8229 31.6329 40.432 31.2182C40.5421 31.1405 40.6717 31.0821 40.8013 31.0109C40.8661 30.8359 40.8208 30.648 40.8337 30.4083C40.432 30.4083 40.0497 30.3759 39.6739 30.4083C38.8445 30.486 38.0864 30.2074 37.3154 30.0066C37.1534 29.9677 37.0691 29.8381 36.9979 29.702C36.7581 29.2614 36.3823 29.0087 35.9352 28.7949C34.3866 28.0433 32.8445 27.2852 31.3283 26.4752C30.6804 26.1318 30.0389 25.9957 29.3197 26.0994C28.8726 26.5465 28.8272 26.553 28.27 26.1772C28.1404 26.0929 28.0173 26.0929 27.8812 26.0929C26.2549 26.0929 24.6285 26.0929 23.0086 26.0929C22.8596 26.0929 22.73 26.1059 22.6069 26.2355C21.7905 27.0973 20.9546 27.0584 20.2289 26.1189C19.568 26.1189 18.8877 26.1189 18.2073 26.1189C16.8013 26.1189 15.3952 26.1189 13.9892 26.1189C13.6523 26.1189 13.3542 26.0541 13.3024 25.6394C13.2829 25.5033 13.1793 25.432 13.0885 25.3478C12.3045 24.5703 11.5075 23.7992 10.73 23.0152C10.581 22.8662 10.4319 22.8078 10.2246 22.8078C9.58313 22.8208 8.94166 22.8208 8.30019 22.8078C7.67168 22.7949 7.51617 22.5422 7.76887 21.9655C7.94382 21.5703 8.11877 21.175 8.24188 20.7344C7.89846 21.0325 7.55505 21.3305 7.21164 21.6221C6.6544 22.0951 6.13604 22.0368 5.71488 21.4471C5.39738 21.0001 5.08636 20.553 4.78183 20.0994C4.38658 19.5098 4.6004 18.9072 5.26131 18.6545C5.90926 18.4083 6.57017 18.4471 7.23756 18.4277C7.89198 18.4083 8.55937 18.5573 9.18788 18.1815C9.40171 18.0584 9.71272 18.1037 9.98486 18.0648C9.98486 17.9158 9.86823 17.851 9.79048 17.7668C8.87687 16.7689 7.96326 15.7776 7.04965 14.7797C6.58313 14.2743 6.62848 13.9763 7.21164 13.607C7.54857 13.3931 7.87903 13.1858 8.21596 12.972C8.75376 12.635 9.06477 12.7322 9.29803 13.3154C9.80991 14.6113 10.3218 15.9007 10.8337 17.1966C10.892 17.3456 10.9568 17.4947 11.0216 17.6502C11.203 17.5983 11.2289 17.4299 11.3002 17.3132C11.9611 16.1664 12.6155 15.0195 13.2764 13.8726C13.6004 13.3154 13.879 13.2571 14.3909 13.6523C14.7149 13.905 15.0389 14.1512 15.3628 14.4039C15.7905 14.7473 15.8034 15.0908 15.3823 15.4536C14.4622 16.2635 13.5291 17.067 12.6026 17.8769C12.4989 17.9677 12.4017 18.0584 12.2721 18.175C12.3304 18.2657 12.3693 18.3759 12.4017 18.3694C12.8358 18.3694 13.1598 18.6998 13.5875 18.7322C14.2678 18.7841 14.9352 18.9461 15.5961 19.1145C15.8358 19.1728 15.9006 19.3089 15.9266 19.5487C16.0043 20.216 15.7775 20.7214 15.1749 21.1037C16.0626 21.7258 16.9568 22.0951 18.0194 22.0433C19.9309 21.9525 21.8294 21.7711 23.7343 21.5638C26.3261 21.2787 28.9179 20.9871 31.5033 20.6955C32.9676 20.5271 34.4449 20.4234 35.8899 20.1707C36.8424 20.0022 37.6717 19.5098 38.1383 18.5702C38.3586 18.1361 38.6048 17.6955 39.1944 17.6502C39.3305 17.6437 39.4147 17.5076 39.4147 17.3391C39.2139 17.2808 39.0389 17.3975 38.864 17.4493C36.0065 18.3111 33.149 19.1793 30.2916 20.0541C30 20.1448 29.7408 20.1512 29.4622 20.0346C29.0605 19.8661 28.6458 19.7301 28.2376 19.5681C28.0691 19.5033 27.8359 19.4774 27.8618 19.2117C27.8877 18.972 28.1015 18.9785 28.2635 18.9396C30.6933 18.324 33.1296 17.7085 35.5659 17.0929C38.1577 16.4385 40.7495 15.7841 43.3413 15.1296C43.432 15.1102 43.5357 15.1167 43.6134 14.9806C42.4342 14.7473 41.2678 14.5206 40.1015 14.2938C34.0497 13.121 27.9978 11.9482 21.946 10.7754C21.7905 10.743 21.6026 10.743 21.5637 10.5357C21.5184 10.2959 21.7257 10.2571 21.8618 10.1599C22.7689 9.5184 23.689 9.486 24.7775 9.74518C31.1598 11.2484 37.5681 12.6674 43.9633 14.1124C44.1188 14.1512 44.2808 14.1772 44.4752 14.2095C44.5011 13.8532 44.7344 13.8013 45.026 13.8208C45.2398 13.8337 45.4277 13.8208 45.6091 13.6264C45.8165 13.3996 46.1275 13.5033 46.3802 13.6134C46.8467 13.8273 47.2938 13.7819 47.7603 13.581C53.2873 11.2355 58.8143 8.90285 64.3413 6.55727C64.6523 6.42768 64.9245 6.40824 65.2484 6.49895C66.026 6.71278 66.81 6.8942 67.5875 7.09507C67.756 7.14042 67.9698 7.1469 67.9958 7.37369C68.0217 7.63935 67.7819 7.65878 67.6135 7.7171C62.553 9.44712 57.499 11.1771 52.4385 12.9072C50.851 13.4514 49.27 13.9957 47.6825 14.6048C48.0648 14.6307 48.4406 14.6696 48.8229 14.689C53.0087 14.9223 57.1944 15.1491 61.3802 15.3759C63.7906 15.5119 66.2074 15.648 68.6178 15.7776C68.7927 15.7905 68.9936 15.7711 69.0649 15.9849C69.1361 16.1858 68.9418 16.2635 68.851 16.3867C68.2549 17.1772 67.5292 17.378 66.5184 17.2743C62.6502 16.8597 58.769 16.5486 54.8942 16.2052C52.134 15.959 49.3737 15.7128 46.6134 15.4666C46.5746 15.4666 46.5357 15.473 46.4903 15.4795C46.3996 15.6156 46.419 15.7581 46.4644 15.9072C47.067 16.1404 47.7992 15.6934 48.3953 16.27C48.7387 16.3089 49.1534 16.2247 49.594 16.3348C49.6199 16.8078 49.6199 17.3067 50.1059 17.6502C50.2549 17.3651 50.5141 17.378 50.7668 17.3845C53.0864 17.3845 55.4126 17.3845 57.7322 17.3845C58.0951 17.3845 58.4126 17.3845 58.4774 17.8705C58.5033 18.0519 58.7754 18.1167 58.7819 18.3629C58.7949 18.8553 58.5227 19.134 58.0951 19.3607C58.1469 19.7884 58.4126 20.0929 58.7106 20.3651C60.0713 21.6026 61.445 22.8402 62.8186 24.0649C63.0195 24.2463 63.1232 24.4277 63.0973 24.6998C63.0778 24.9137 63.0584 25.1275 63.2528 25.3024C63.4212 25.4579 63.2009 25.6264 63.2009 25.8338C63.6027 25.8856 63.7906 26.1966 63.972 26.5076C64.1405 26.8057 64.0692 27.026 63.7711 27.1815C63.4601 27.3435 63.1426 27.4342 62.7927 27.4277C62.3586 27.4277 61.931 27.4277 61.4968 27.4277C61.5487 28.0692 61.4644 28.1534 60.8359 28.1534L60.8035 28.1858Z" fill="#BBBCBE"/>
</svg>
