<svg width="75" height="69" viewBox="0 0 75 69" fill="none" xmlns="http://www.w3.org/2000/svg">
<path d="M21.1875 33.1527C26.6597 33.1527 37.5972 27.8819 37.5972 27.8819V27.8194C36.8877 27.8285 36.1833 27.6979 35.5243 27.4348C34.8653 27.1717 34.2645 26.7814 33.7564 26.2862C33.2482 25.7909 32.8426 25.2004 32.5627 24.5484C32.2828 23.8963 32.134 23.1955 32.125 22.486C32.1254 21.707 32.301 20.938 32.6389 20.236C33.7361 17.7221 36.5347 14.9374 40.3958 10.3332C44.0625 5.9513 48.1527 1.81241 43.868 0.458242C37.0694 -1.66676 26.9444 3.75685 20.1875 13.4513C16.2014 19.1735 15.1111 23.7221 15.1111 27.1666C15.1111 29.5485 16.2222 33.1457 21.1805 33.1457" fill="#BBBCBE"/>
<path d="M55.007 31.5138C58.9931 25.7916 60.0833 21.243 60.0833 17.7985C60.0833 15.4166 58.9722 11.8194 54.0139 11.8194C48.5417 11.8055 37.5972 17.0833 37.5972 17.0833V17.1458C39.029 17.1309 40.408 17.685 41.4315 18.6864C42.4549 19.6877 43.0391 21.0543 43.0556 22.486C43.0544 23.2628 42.8787 24.0293 42.5417 24.7291C41.4445 27.243 38.6458 30.0277 34.7847 34.6319C31.1181 39.0138 27.0347 43.1527 31.3125 44.5069C38.0764 46.6319 48.2014 41.2083 54.9583 31.5069" fill="#BBBCBE"/>
<path d="M56.7014 51.4026H52.9097V68.729H56.7014V51.4026Z" fill="#BBBCBE"/>
<path d="M38.8472 58.451V61.6871H36.7639C36.8501 62.595 37.0412 63.4899 37.3334 64.3538C37.7168 65.4865 38.4154 66.4863 39.3473 67.2357C40.0853 67.849 40.963 68.2711 41.9028 68.4649C42.8312 68.6508 43.7754 68.7462 44.7223 68.7496H50.0486V65.7566H44.6736C44.5278 65.7566 44.375 65.7566 44.2292 65.7219C43.6623 65.7187 43.1074 65.5579 42.6267 65.2575C42.1459 64.957 41.7582 64.5287 41.507 64.0205C40.9517 62.7747 40.6647 61.4261 40.6647 60.0621C40.6647 58.6982 40.9517 57.3496 41.507 56.1038C41.7582 55.5956 42.1459 55.1673 42.6267 54.8668C43.1074 54.5663 43.6623 54.4055 44.2292 54.4024C44.375 54.4024 44.5278 54.3677 44.6736 54.3677H50.0486V51.3885H44.7223C43.7761 51.3851 42.8319 51.4735 41.9028 51.6524C40.963 51.8462 40.0853 52.2684 39.3473 52.8816C38.4154 53.6311 37.7168 54.6308 37.3334 55.7635C37.0412 56.6274 36.8501 57.5223 36.7639 58.4302L38.8472 58.451Z" fill="#BBBCBE"/>
<path d="M15.2014 58.2221C15.1287 57.6287 15.0127 57.0415 14.8542 56.4651C14.7118 55.9454 14.5307 55.437 14.3125 54.9443C14.1334 54.5287 13.8999 54.1387 13.6181 53.7846C12.9365 52.9287 12.0191 52.2913 10.9792 51.9512C9.58585 51.5339 8.13435 51.3439 6.68056 51.3887H0V68.7499H6.68056H8.18056C8.61111 68.7499 8.98611 68.7499 9.30556 68.6804C9.625 68.611 9.91667 68.604 10.1736 68.5624C10.4289 68.5201 10.6799 68.455 10.9236 68.3679C11.7758 68.1069 12.5541 67.6476 13.1944 67.0276C13.837 66.3745 14.3133 65.5767 14.5833 64.7012C14.8306 63.9855 15.012 63.2486 15.125 62.4999C15.2518 61.7098 15.3168 60.9111 15.3194 60.111C15.3197 59.4795 15.2802 58.8486 15.2014 58.2221ZM10.9583 62.6249C10.7989 63.3001 10.5036 63.9357 10.0903 64.4929C9.73905 64.9035 9.27568 65.2028 8.75694 65.354C8.08181 65.558 7.37871 65.6541 6.67361 65.6387H3.66667V54.486H6.68056C7.28985 54.4712 7.89864 54.5319 8.49306 54.6665C8.94031 54.78 9.35589 54.9937 9.70833 55.2915C10.2614 55.804 10.6606 56.4605 10.8611 57.1874C11.1538 58.1196 11.2967 59.0923 11.2847 60.0693C11.2887 60.9295 11.1789 61.7865 10.9583 62.6179V62.6249Z" fill="#BBBCBE"/>
<path d="M30.3889 51.3888H25.5278C23.8308 51.2833 22.1403 51.6794 20.6667 52.5276C19.3502 53.4055 18.3918 54.7261 17.9653 56.2499C17.68 57.2231 17.5213 58.2291 17.4931 59.2429C17.4931 59.5068 17.4931 59.7707 17.4931 60.0415C17.4931 60.3124 17.4931 60.5693 17.4931 60.8401C17.4817 62.5459 17.9252 64.2238 18.7778 65.7013C19.6351 67.0464 20.9742 68.0128 22.5208 68.4026C23.5043 68.6134 24.5082 68.7135 25.5139 68.7013H30.375V65.7151H25.6945C24.624 65.7697 23.5747 65.4033 22.7709 64.6943C22.0317 63.8553 21.6199 62.7778 21.6111 61.6596H28.9653V58.4721H21.6042C21.6129 57.3539 22.0247 56.2764 22.7639 55.4374C23.5695 54.7267 24.6217 54.3601 25.6945 54.4165H30.3959L30.3889 51.3888Z" fill="#BBBCBE"/>
<path d="M69.2083 60.0623L75 51.4026H70.4167L66.9583 56.7706L63.5 51.4026H58.9097L64.7083 60.0623L58.9097 68.729H63.5L66.9583 63.3609L70.4167 68.729H75L69.2083 60.0623Z" fill="#BBBCBE"/>
</svg>
