<svg width="141" height="63" viewBox="0 0 141 63" fill="none" xmlns="http://www.w3.org/2000/svg">
<path d="M58.4382 3.96849C59.4799 4.04291 60.5279 4.04911 61.5635 4.29095C62.2456 4.45217 62.8595 4.30955 62.4936 3.32359C62.3696 2.99494 62.3882 2.63528 62.8037 2.53606C63.2191 2.43685 63.3618 2.7779 63.4858 3.08795C63.7462 3.72666 63.9819 4.37156 64.2485 5.00406C64.3601 5.2769 64.5647 5.59936 64.8872 5.35132C65.4453 4.91725 66.1832 4.6382 66.4064 3.86928C66.7909 2.51746 67.4792 1.32067 68.1675 0.117676C64.4283 0.495937 60.9744 1.84775 58.0661 3.91269C58.1901 3.93749 58.3079 3.9747 58.4382 3.9809V3.96849Z" fill="#BBBCBE"/>
<path d="M78.9821 1.854C78.6906 2.41209 78.4054 2.97638 78.2256 3.57168C77.8411 4.83668 78.1512 5.50019 79.2673 6.22571C79.658 6.47995 79.9991 6.8086 80.3835 7.07524C81.0842 7.56512 81.7167 8.22243 82.7027 8.0364C83.0747 7.96819 83.3228 8.14802 83.1554 8.51387C82.8639 9.14638 83.2732 9.51844 83.5522 9.97731C84.5134 11.5338 86.1442 12.7368 86.0512 14.8513C86.0388 15.1117 86.3551 15.4156 86.5721 15.645C86.8201 15.9179 87.0372 16.2031 87.155 16.5504C88.172 19.6633 88.5564 22.8692 87.8557 26.0689C87.465 27.861 86.8388 29.5849 86.9132 31.4576C86.9566 32.6357 86.7519 33.7705 86.4729 34.8929C89.6044 31.1971 91.5019 26.4162 91.5019 21.1949C91.5019 12.5817 86.3613 5.17154 78.9821 1.8602V1.854Z" fill="#BBBCBE"/>
<path d="M75.3049 39.7049C75.0817 39.0724 74.7096 38.874 74.1825 39.3763C73.426 40.1018 72.6819 40.8583 72.1734 41.7761C72.0742 41.9559 71.9874 42.1357 71.9006 42.3094C73.3082 42.204 74.6786 41.9621 75.9932 41.5963C75.7638 40.9638 75.5282 40.3312 75.3049 39.6987V39.7049Z" fill="#BBBCBE"/>
<path d="M64.6764 41.3793C63.9633 40.7654 63.4362 39.9902 62.8409 39.2647C61.21 37.2618 60.6023 34.6326 58.3142 32.9521C56.5903 31.6871 55.7904 29.3927 55.1144 27.2844C54.606 25.7031 54.5812 23.9979 53.9735 22.4352C53.899 22.2492 53.8804 21.9825 53.9611 21.8089C54.7424 20.0664 54.6866 18.1379 55.2385 16.3334C56.026 13.76 55.9516 13.7352 53.5704 12.5818C52.7767 12.1974 51.9085 12.0423 51.152 12.1292C49.8498 14.8824 49.1119 17.9519 49.1119 21.2012C49.1119 31.1042 55.9082 39.4197 65.0918 41.7451C64.9492 41.6273 64.8128 41.5095 64.6702 41.3855L64.6764 41.3793Z" fill="#BBBCBE"/>
<path d="M85.3381 36.1333C85.6419 34.645 85.8404 33.1444 85.8466 31.6065C85.8466 29.9881 85.4931 28.5866 83.8375 27.8611C83.546 27.7309 83.3042 27.4891 83.0437 27.2906C80.0238 25.0211 76.5327 24.1095 72.8431 23.7871C72.2478 23.7313 71.944 24.0227 72.1548 24.5374C73.0229 26.6581 73.1283 29.0021 74.0709 31.0794C75.001 33.132 75.5281 35.3271 76.111 37.4541C76.4583 38.7191 76.8241 39.9779 77.2086 41.2305C80.3029 40.1639 83.0809 38.409 85.3381 36.1333ZM80.892 38.3842C80.7618 38.6881 80.4331 38.502 80.2347 38.3842C79.813 38.1424 79.3355 38.1672 78.8891 38.0432C78.7464 37.9998 78.6348 37.9005 78.6534 37.7331C78.6782 37.5595 78.8085 37.5161 78.7961 37.5161C79.4534 37.6277 79.9494 37.7021 80.4393 37.8013C80.7432 37.8633 81.0346 38.0618 80.892 38.3842Z" fill="#BBBCBE"/>
<path d="M55.6911 17.9334C55.0214 21.4245 55.4245 24.8289 56.6151 28.1464C57.0926 29.4796 57.8119 30.7012 58.6552 31.8298C59.4427 32.8964 60.2427 32.9336 61.1852 32.0034C62.4626 30.7446 63.1571 29.0703 64.2237 27.6565C65.4639 26.0195 66.4995 24.246 67.8451 22.6647C68.7815 21.5609 69.1163 20.1223 68.3846 18.6093C67.6095 17.0032 67.2498 15.2483 66.8529 13.5245C66.5305 12.1044 65.9848 10.7712 65.5507 9.38839C65.3709 8.8179 65.1043 8.32802 64.5648 8.01797C64.1927 7.80713 63.9447 7.53429 64.0749 7.04441C64.1369 6.81497 64.3539 6.52353 64.0749 6.3437C63.7834 6.15147 63.5478 6.43671 63.3246 6.60414C63.213 6.69095 63.1137 6.79017 62.8161 7.05061C63.1571 5.83522 62.5929 5.51897 61.7619 5.23992C60.2737 4.74384 58.7234 4.70664 57.1856 4.54541C54.9036 6.3437 53.0061 8.60086 51.6233 11.1743C51.6605 11.1929 51.6853 11.2177 51.7225 11.2301C52.8635 11.6828 54.0045 12.1106 55.0834 12.7121C55.8896 13.1648 56.4973 12.6873 56.9375 12.0672C57.7809 10.8642 59.1389 10.2131 60.0628 9.09694C60.1931 8.94192 60.4039 8.8241 60.7822 8.99152C60.0877 9.97128 59.1389 10.6968 58.4444 11.6269C57.0244 13.5245 56.1376 15.6142 55.6911 17.9148V17.9334Z" fill="#BBBCBE"/>
<path d="M78.021 23.4336C79.9433 23.787 81.6982 24.8536 83.3662 25.945C83.8189 26.2426 84.253 26.5775 84.7366 26.8131C85.8776 27.3774 86.8946 26.9371 86.9566 25.7031C87.124 22.5158 87.0558 19.3409 85.363 16.4636C83.9925 15.9738 84.563 14.746 84.284 13.8158C83.9367 12.681 83.1988 11.6641 82.3493 10.8455C81.4005 9.934 80.4022 9.05966 79.3294 8.25973C75.9312 5.72352 72.068 6.08318 68.2172 6.23201C67.4979 6.26301 67.1878 6.67228 67.2622 7.38539C67.3057 7.78225 67.3491 8.17292 67.4235 8.83022C67.4483 9.41312 67.6529 10.2006 68.0498 10.9572C68.4032 11.6331 68.5645 12.34 68.5893 13.1337C68.6203 14.2375 69.0543 15.2483 69.8667 16.042C70.2573 16.4264 70.5674 16.7923 70.1085 17.3318C70.0465 17.4062 70.0217 17.5302 70.0031 17.6356C69.724 19.1611 71.2681 21.8585 72.7749 22.1934C74.5298 22.584 76.2537 23.1049 78.0334 23.4336H78.021ZM78.0024 15.856C77.3079 16.1164 76.6195 16.1164 75.708 15.918C76.6195 15.3103 77.3141 15.5211 78.0024 15.856Z" fill="#BBBCBE"/>
<path d="M74.4429 36.7407C73.86 34.775 73.5004 32.7535 72.6632 30.8436C71.9625 29.2375 71.8633 27.402 71.1502 25.765C70.8774 25.1387 70.6603 24.4814 70.3813 23.8551C69.9472 22.8939 69.4015 22.7637 68.6202 23.452C67.9133 24.0721 67.2064 24.7294 66.7661 25.5665C65.6747 27.6501 64.0687 29.4111 63.0207 31.5195C62.9277 31.7117 62.7789 31.8791 62.6362 32.0404C61.1852 33.6216 61.1046 33.9379 62.0719 35.854C62.7851 37.2678 63.4424 38.7747 64.5957 39.8722C65.4453 40.6722 66.3568 41.4163 67.2622 42.1728C68.2543 42.3154 69.2713 42.396 70.3007 42.396C70.5859 42.396 70.865 42.3836 71.144 42.3774C71.1626 42.3402 71.1812 42.3092 71.1998 42.272C71.8571 40.9016 72.8493 39.8226 73.8414 38.7312C74.3809 38.1359 74.6352 37.5406 74.4305 36.7593L74.4429 36.7407Z" fill="#BBBCBE"/>
<path d="M70.3131 0C70.0713 0 69.8295 0.012402 69.5876 0.018603C69.2838 0.465075 69.0171 0.948753 68.7629 1.46344C68.428 2.13934 68.0002 2.77185 67.5599 3.39195C67.1444 3.97484 67.3801 4.24768 67.9506 4.3531C69.3024 4.61354 70.6728 4.62594 72.0432 4.55773C72.9858 4.27869 73.9159 4.56393 74.8461 4.62594C75.8692 4.69415 76.694 4.41511 77.2582 3.52217C77.6613 2.88346 77.8969 2.18275 78.0582 1.46964C75.6584 0.527085 73.0478 0 70.3131 0Z" fill="#BBBCBE"/>
<path d="M0 62.6487H0.979758V58.9095H4.94219V57.9359H0.979758V54.5874H5.41347V53.6262H0V62.6487Z" fill="#BBBCBE"/>
<path d="M13.2639 53.5146C10.9137 53.5146 9.15265 55.4928 9.15265 58.1282C9.15265 60.7636 10.9199 62.7417 13.2639 62.7417C15.6079 62.7417 17.3752 60.776 17.3752 58.1282C17.3752 55.4804 15.6265 53.5146 13.2639 53.5146ZM13.2639 61.7558C11.4718 61.7558 10.1262 60.2241 10.1262 58.1468C10.1262 56.0695 11.4718 54.5192 13.2639 54.5192C15.056 54.5192 16.4016 56.0509 16.4016 58.1468C16.4016 60.2427 15.056 61.7558 13.2639 61.7558Z" fill="#BBBCBE"/>
<path d="M23.1421 53.6262H22.1686V62.6487H27.4208V61.6875H23.1421V53.6262Z" fill="#BBBCBE"/>
<path d="M32.6482 53.6262H31.6685V62.6487H32.6482V53.6262Z" fill="#BBBCBE"/>
<path d="M40.3561 53.6262L36.8153 62.6487H37.7951L38.688 60.3171H42.9915L43.8844 62.6487H44.8642L41.3234 53.6262H40.3623H40.3561ZM39.0415 59.3931L40.846 54.7114L42.638 59.3931H39.0415Z" fill="#BBBCBE"/>
<path d="M52.2744 54.5192C53.186 54.5192 53.9549 54.8541 54.5936 55.6044L55.2199 54.8541C54.5254 53.9611 53.5084 53.5146 52.262 53.5146C49.8994 53.5146 48.1321 55.4928 48.1321 58.1282C48.1321 60.7636 49.8994 62.7417 52.2992 62.7417C53.3844 62.7417 54.4448 62.3449 55.1641 61.5945V58.1282H54.2277V61.0985C53.6696 61.5449 53.0309 61.7372 52.3116 61.7372C50.4513 61.7372 49.1057 60.2055 49.1057 58.1282C49.1057 56.0509 50.4513 54.5192 52.2682 54.5192H52.2744Z" fill="#BBBCBE"/>
<path d="M61.4518 58.5436H65.4143V57.6011H61.4518V54.5874H65.8917V53.6262H60.4783V62.6487H66.053V61.6875H61.4518V58.5436Z" fill="#BBBCBE"/>
<path d="M80.3649 53.6262H77.1465V62.6487H80.3649C82.9445 62.6487 84.5567 60.8256 84.5567 58.1281C84.5567 55.4307 82.9383 53.6262 80.3649 53.6262ZM80.3215 61.6875H78.1201V54.5812H80.3215C82.3864 54.5812 83.577 56.0012 83.577 58.1281C83.577 60.2551 82.3802 61.6875 80.3215 61.6875Z" fill="#BBBCBE"/>
<path d="M95.5387 56.7391C95.5387 54.761 94.3047 53.6262 92.3328 53.6262H89.3439V62.6487H90.3237V59.8396H92.3328C92.5064 59.8396 92.6863 59.821 92.8599 59.8086L94.5962 62.6487H95.6565L93.7838 59.5854C94.8814 59.1389 95.5325 58.1467 95.5325 56.7453L95.5387 56.7391ZM92.2832 58.8971H90.3299V54.5874H92.2832C93.7652 54.5874 94.5652 55.3563 94.5652 56.7453C94.5652 58.1343 93.7652 58.9033 92.2832 58.9033V58.8971Z" fill="#BBBCBE"/>
<path d="M101.51 58.5436H105.473V57.6011H101.51V54.5874H105.95V53.6262H100.537V62.6487H106.111V61.6875H101.51V58.5436Z" fill="#BBBCBE"/>
<path d="M113.075 53.6262L109.534 62.6487H110.514L111.407 60.3171H115.711L116.604 62.6487H117.583L114.043 53.6262H113.081H113.075ZM111.761 59.3931L113.565 54.7114L115.357 59.3931H111.761Z" fill="#BBBCBE"/>
<path d="M129.111 53.6262L125.862 60.0939L122.606 53.6262H121.763V62.6487H122.699V55.7966L125.632 61.5139H126.079L129.012 55.7036V62.6487H129.967L129.948 53.6262H129.111Z" fill="#BBBCBE"/>
<path d="M135.882 56.0197C135.882 55.1764 136.465 54.5005 137.823 54.5005C138.543 54.5005 139.318 54.6927 139.969 55.2322L140.322 54.3082C139.684 53.7811 138.747 53.5083 137.854 53.5083C135.957 53.5083 134.921 54.5935 134.921 56.0631C134.921 59.4489 139.646 57.8986 139.646 60.2798C139.646 61.0921 139.088 61.7618 137.681 61.7618C136.651 61.7618 135.672 61.3154 135.101 60.7077L134.692 61.6006C135.3 62.2703 136.472 62.7354 137.65 62.7354C139.566 62.7354 140.62 61.6812 140.62 60.1806C140.62 56.8754 135.882 58.3761 135.882 56.0135V56.0197Z" fill="#BBBCBE"/>
</svg>
