<svg width="102" height="37" viewBox="0 0 102 37" fill="none" xmlns="http://www.w3.org/2000/svg">
<path d="M54.4924 8.99647V30.1782C54.2015 30.2583 53.7541 30.3383 53.1479 30.4183C52.5418 30.4984 51.9215 30.5373 51.2889 30.5373C49.918 30.5373 48.9559 30.2911 48.4027 29.7986C47.8494 29.3061 47.5728 28.4483 47.5728 27.2253V20.8822H39.982V30.1762C39.6911 30.2562 39.2436 30.3362 38.6375 30.4163C38.0314 30.4963 37.411 30.5353 36.7785 30.5353C35.4076 30.5353 34.4455 30.289 33.8922 29.7965C33.339 29.304 33.0624 28.4463 33.0624 27.2232V5.96347C33.3797 5.91012 33.8455 5.83829 34.4658 5.7439C35.0842 5.65155 35.6842 5.60435 36.2639 5.60435C37.5819 5.60435 38.5297 5.83008 39.1114 6.28155C39.6911 6.73506 39.982 7.61131 39.982 8.91439V15.3764H47.5728V5.96347C47.8901 5.91012 48.3559 5.83829 48.9762 5.7439C49.5946 5.65155 50.1946 5.60435 50.7743 5.60435C52.0923 5.60435 53.0401 5.84445 53.6219 6.32259C54.2015 6.80073 54.4924 7.69339 54.4924 8.99442V8.99647ZM79.0242 19.5668C79.8012 20.5252 80.1897 21.7072 80.1897 23.117C80.1897 25.7231 79.2134 27.6644 77.2649 28.9408C75.3143 30.2172 72.5338 30.8554 68.9215 30.8554C68.3153 30.8554 67.5912 30.8287 66.7471 30.7754C65.903 30.722 65.0467 30.6215 64.1782 30.4758C63.3077 30.3301 62.5185 30.1228 61.8066 29.8581C60.3564 29.2999 59.6323 28.3293 59.6323 26.9462V8.31723C59.6323 7.75906 59.7909 7.32606 60.1062 7.0203C60.4235 6.71454 60.8303 6.46829 61.3327 6.28155C62.2276 5.96142 63.3545 5.72953 64.7132 5.58383C66.0698 5.43813 67.4468 5.36426 68.8442 5.36426C72.1921 5.36426 74.7814 5.94295 76.614 7.10033C78.4466 8.25772 79.3619 10.0184 79.3619 12.3865C79.3619 13.7163 78.9592 14.8265 78.1557 15.7171C77.5232 16.4169 76.6811 16.975 75.6336 17.3978C77.1286 17.9026 78.2595 18.6249 79.0263 19.5668H79.0242ZM66.3525 10.7921V15.4996H69.2388C70.3717 15.4996 71.1955 15.2862 71.7101 14.8614C72.2247 14.4366 72.4809 13.8107 72.4809 12.9857C72.4809 12.2675 72.184 11.697 71.5921 11.2702C70.9982 10.8454 70.1093 10.632 68.9235 10.632C68.5289 10.632 68.0733 10.6464 67.5587 10.671C67.0441 10.6977 66.6434 10.7367 66.3525 10.79V10.7921ZM73.1135 22.7989C73.1135 21.9206 72.8165 21.2967 72.2247 20.9233C71.6307 20.5518 70.7541 20.3651 69.5947 20.3651H66.3525V25.2327C66.7207 25.3394 67.2028 25.4112 67.7967 25.4522C68.3906 25.4912 68.9357 25.5118 69.4381 25.5118C70.4917 25.5118 71.3683 25.2922 72.068 24.853C72.7657 24.4139 73.1155 23.7305 73.1155 22.7989H73.1135ZM101.481 25.9899C101.337 25.5118 101.172 25.126 100.987 24.8325H90.8254V20.6442H98.0603C98.7986 20.6442 99.3783 20.4246 99.7993 19.9855C100.22 19.5463 100.432 18.8363 100.432 17.8513C100.432 17.2931 100.359 16.7883 100.214 16.3348C100.07 15.8833 99.9051 15.5098 99.72 15.2184H90.8234V11.5082H99.1668C99.9051 11.5082 100.485 11.2825 100.906 10.831C101.327 10.3796 101.538 9.66135 101.538 8.67634C101.538 8.11817 101.465 7.61336 101.321 7.15984C101.176 6.70838 101.012 6.3349 100.826 6.0435H87.7785C86.6456 6.0435 85.7486 6.37594 85.0896 7.04082C84.4306 7.7057 84.1011 8.61068 84.1011 9.7537V26.6281C84.1011 27.7711 84.4306 28.6761 85.0896 29.341C85.7486 30.0059 86.6456 30.3383 87.7785 30.3383H99.3234C100.062 30.3383 100.641 30.1187 101.062 29.6796C101.483 29.2404 101.695 28.5304 101.695 27.5454C101.695 26.9872 101.622 26.468 101.477 25.9899H101.481Z" fill="#BBBCBE"/>
<path d="M21.6497 4.02622H20.1629C19.2496 1.67041 16.9817 0 14.3233 0H7.32437V4.02622H0V25.8688C0 29.3635 2.80893 32.1974 6.2728 32.1974H7.75964C8.6729 34.5532 10.9388 36.2236 13.5972 36.2236H20.5961V32.1974H27.9205V10.3549C27.9205 6.86016 25.1115 4.02622 21.6477 4.02622H21.6497ZM4.46255 25.8667V8.52647H7.3264V27.6931H6.27483C5.27615 27.6931 4.46459 26.8743 4.46459 25.8667H4.46255ZM16.1356 31.7193H13.5992C12.6005 31.7193 11.789 30.9005 11.789 29.8929V4.5023H14.3253C15.324 4.5023 16.1356 5.32109 16.1356 6.32867V31.7193ZM23.4599 27.6951H20.5961V8.52647H21.6477C22.6463 8.52647 23.4579 9.34526 23.4579 10.3528V27.6931L23.4599 27.6951Z" fill="#BBBCBE"/>
</svg>
