<svg width="167" height="35" viewBox="0 0 167 35" fill="none" xmlns="http://www.w3.org/2000/svg">
<path d="M9.56636 21.2751C9.24083 20.9389 8.8733 20.6552 8.46376 20.4241C8.05423 20.193 7.63419 19.9933 7.21415 19.8252C6.79411 19.6466 6.37407 19.489 5.96454 19.342C5.555 19.1949 5.17697 19.0373 4.86194 18.8692C4.53641 18.7011 4.27389 18.512 4.07437 18.2913C3.87485 18.0707 3.78034 17.7975 3.78034 17.4718C3.78034 17.2617 3.82234 17.0621 3.90635 16.8835C3.99036 16.7049 4.11637 16.5368 4.28439 16.4002C4.4524 16.2636 4.66242 16.1586 4.92494 16.085C5.18747 16.0115 5.49199 15.9799 5.84903 15.9799C6.35307 15.9799 6.79411 16.0325 7.19315 16.148C7.58168 16.2531 7.92821 16.3792 8.23274 16.5053C8.53727 16.6313 8.77879 16.7469 8.97831 16.8625C9.17783 16.9675 9.32484 17.0306 9.41935 17.0306C9.50336 17.0306 9.57686 17.0096 9.63987 16.978C9.70287 16.9465 9.75538 16.873 9.78688 16.7679C9.81839 16.6629 9.84989 16.5158 9.86039 16.3477C9.88139 16.1691 9.88139 15.9379 9.88139 15.6543C9.88139 15.4126 9.88139 15.213 9.86039 15.0554C9.83939 14.8978 9.82889 14.7612 9.80788 14.6457C9.78688 14.5406 9.75538 14.446 9.71338 14.362C9.67137 14.2884 9.59786 14.2044 9.50336 14.1308C9.40885 14.0573 9.24083 13.9627 9.00981 13.8472C8.77879 13.7421 8.49527 13.637 8.15924 13.5425C7.8232 13.4479 7.45567 13.3639 7.03563 13.3114C6.6261 13.2483 6.19556 13.2168 5.75452 13.2168C4.87244 13.2168 4.08487 13.3219 3.3813 13.5425C2.67774 13.7631 2.07919 14.0678 1.58564 14.467C1.0921 14.8663 0.714064 15.3391 0.462042 15.9064C0.199518 16.4632 0.0735066 17.0936 0.0735066 17.7555C0.0735066 18.4174 0.168015 18.9742 0.367533 19.447C0.55655 19.9198 0.819074 20.319 1.1341 20.6552C1.44913 20.9914 1.81666 21.2751 2.2157 21.5063C2.61474 21.7374 3.02427 21.937 3.45481 22.1156C3.87485 22.2942 4.29489 22.4518 4.69392 22.5989C5.09296 22.746 5.46049 22.9036 5.77552 23.0717C6.09055 23.2398 6.35307 23.4394 6.54209 23.66C6.73111 23.8807 6.83612 24.1538 6.83612 24.469C6.83612 24.7422 6.78361 24.9838 6.6786 25.194C6.57359 25.4041 6.41608 25.5722 6.21656 25.7088C6.00654 25.8453 5.77552 25.9504 5.49199 26.024C5.21897 26.0975 4.89344 26.129 4.54691 26.129C3.97986 26.129 3.47581 26.066 3.03477 25.9294C2.59373 25.7928 2.2052 25.6457 1.86917 25.4881C1.53314 25.3305 1.24961 25.1835 1.02909 25.0574C0.808573 24.9313 0.630057 24.8578 0.514546 24.8578C0.420038 24.8578 0.33603 24.8788 0.283526 24.9103C0.22052 24.9418 0.168015 25.0154 0.126011 25.1309C0.0840076 25.2465 0.0525047 25.3831 0.0315028 25.5722C0.0105009 25.7508 0 26.0029 0 26.2971C0 26.7594 0.0315028 27.1061 0.0945085 27.3372C0.157514 27.5684 0.241522 27.747 0.357032 27.852C0.472543 27.9571 0.651059 28.0832 0.903081 28.2093C1.1551 28.3353 1.47013 28.4614 1.84817 28.577C2.2262 28.6926 2.64624 28.7976 3.12928 28.8712C3.60182 28.9447 4.10587 28.9867 4.63092 28.9867C5.5025 28.9867 6.30057 28.8817 7.04613 28.682C7.7917 28.4824 8.43226 28.1672 8.97831 27.768C9.52436 27.3583 9.9444 26.854 10.2384 26.2446C10.5324 25.6352 10.6795 24.9418 10.6795 24.1433C10.6795 23.5024 10.585 22.9456 10.3854 22.4833C10.1859 22.0211 9.92339 21.6218 9.59787 21.2856L9.56636 21.2751Z" fill="#BBBCBE"/>
<path d="M26.7774 14.0889C26.7774 13.9838 26.7459 13.8893 26.6829 13.8157C26.6199 13.7422 26.5149 13.6686 26.3679 13.6161C26.2209 13.5636 26.0214 13.5216 25.7693 13.5005C25.5173 13.4795 25.2023 13.4585 24.8137 13.4585C24.4252 13.4585 24.1102 13.469 23.8582 13.5005C23.6061 13.5216 23.4066 13.5636 23.2596 13.6161C23.1126 13.6686 22.9971 13.7317 22.9446 13.8157C22.8921 13.8998 22.8606 13.9838 22.8606 14.0889V23.3869C22.283 24.0909 21.7475 24.6267 21.2329 24.9839C20.7289 25.3516 20.2248 25.5302 19.7208 25.5302C19.3217 25.5302 18.9752 25.4567 18.6812 25.2991C18.3872 25.152 18.1351 24.9314 17.9461 24.6582C17.7571 24.385 17.6101 24.0488 17.5156 23.6601C17.4211 23.2714 17.3791 22.7145 17.3791 21.9791V14.0679C17.3791 13.9628 17.3476 13.8683 17.2846 13.7947C17.2216 13.7212 17.1166 13.6476 16.959 13.5951C16.812 13.5426 16.602 13.5005 16.3605 13.4795C16.1085 13.4585 15.7829 13.4375 15.4049 13.4375C15.0269 13.4375 14.7118 13.448 14.4598 13.4795C14.2078 13.5005 13.9978 13.5426 13.8508 13.5951C13.7037 13.6476 13.5987 13.7107 13.5357 13.7947C13.4727 13.8788 13.4517 13.9628 13.4517 14.0679V22.6305C13.4517 23.7021 13.5357 24.5847 13.7142 25.3096C13.8928 26.024 14.1763 26.6544 14.5753 27.2007C14.9744 27.7471 15.5099 28.1778 16.161 28.4825C16.812 28.7977 17.6206 28.9553 18.5867 28.9553C19.4478 28.9553 20.2773 28.7452 21.0754 28.3249C21.8735 27.9046 22.6611 27.2743 23.4381 26.4443V28.0622C23.4381 28.1673 23.4696 28.2619 23.5116 28.3354C23.5641 28.409 23.6481 28.4825 23.7742 28.535C23.9002 28.5876 24.0682 28.6296 24.2887 28.6506C24.4987 28.6716 24.7822 28.6926 25.1288 28.6926C25.4543 28.6926 25.7168 28.6821 25.9373 28.6506C26.1579 28.6191 26.3259 28.5876 26.4519 28.535C26.5779 28.4825 26.6724 28.4195 26.7249 28.3354C26.7774 28.2514 26.7984 28.1673 26.7984 28.0622V14.0679L26.7774 14.0889Z" fill="#BBBCBE"/>
<path d="M43.4214 15.4549C42.9699 14.751 42.3818 14.2046 41.6573 13.7949C40.9327 13.3957 40.0611 13.196 39.0425 13.196C38.549 13.196 38.0869 13.2486 37.6564 13.3536C37.2259 13.4587 36.8058 13.6163 36.3963 13.8369C35.9868 14.0471 35.5877 14.3202 35.1992 14.6354C34.8106 14.9506 34.4116 15.3183 34.0021 15.7386V14.0891C34.0021 13.984 33.9811 13.8895 33.9286 13.8159C33.8761 13.7424 33.7816 13.6688 33.6555 13.6163C33.519 13.5638 33.351 13.5217 33.141 13.5007C32.931 13.4797 32.679 13.4587 32.3534 13.4587C32.0279 13.4587 31.7549 13.4692 31.5449 13.5007C31.3348 13.5217 31.1563 13.5638 31.0303 13.6163C30.8938 13.6688 30.8098 13.7319 30.7573 13.8159C30.7048 13.8895 30.6838 13.984 30.6838 14.0891V33.6413C30.6838 33.7463 30.7153 33.8409 30.7783 33.9249C30.8413 34.009 30.9463 34.0825 31.1038 34.1351C31.2508 34.1876 31.4608 34.2401 31.7024 34.2716C31.9439 34.3032 32.2694 34.3137 32.658 34.3137C33.0465 34.3137 33.3615 34.3032 33.6135 34.2716C33.8656 34.2401 34.0651 34.1981 34.2121 34.1351C34.3591 34.072 34.4746 34.009 34.5376 33.9249C34.6006 33.8409 34.6321 33.7463 34.6321 33.6413V27.0538C34.9682 27.3795 35.2937 27.6632 35.6087 27.9048C35.9237 28.1465 36.2388 28.3461 36.5538 28.5037C36.8688 28.6613 37.2049 28.7874 37.5409 28.8609C37.8769 28.9345 38.255 28.9765 38.6645 28.9765C39.6516 28.9765 40.5232 28.7874 41.2792 28.4091C42.0458 28.0309 42.6759 27.4951 43.1904 26.7912C43.7049 26.0873 44.0935 25.2362 44.356 24.2381C44.6185 23.2401 44.755 22.1159 44.755 20.8761C44.755 19.8255 44.65 18.8274 44.44 17.8924C44.23 16.9573 43.894 16.1483 43.4424 15.4444L43.4214 15.4549ZM40.6177 21.1598C40.6177 21.6956 40.5652 22.2314 40.4497 22.7568C40.3446 23.2926 40.1661 23.7654 39.9351 24.1961C39.7041 24.6164 39.4101 24.9631 39.053 25.2257C38.696 25.4884 38.255 25.6145 37.7404 25.6145C37.1944 25.6145 36.6693 25.4254 36.1758 25.0366C35.6717 24.6584 35.1467 24.1121 34.5901 23.4082V18.7959C34.9052 18.3756 35.1992 18.0289 35.4827 17.7453C35.7662 17.4616 36.0393 17.2305 36.3018 17.0518C36.5643 16.8732 36.8268 16.7472 37.0894 16.6631C37.3519 16.5791 37.6039 16.5475 37.8664 16.5475C38.3915 16.5475 38.822 16.6736 39.179 16.9363C39.5256 17.1884 39.8091 17.5351 40.0296 17.9659C40.2396 18.3967 40.3972 18.8799 40.4812 19.4368C40.5652 19.9936 40.6177 20.5609 40.6177 21.1598Z" fill="#BBBCBE"/>
<path d="M61.5566 17.9029C61.3466 16.9678 61.021 16.1588 60.559 15.4549C60.1075 14.751 59.5194 14.2046 58.7948 13.7949C58.0703 13.3957 57.1987 13.196 56.1801 13.196C55.6866 13.196 55.2245 13.2486 54.794 13.3536C54.3634 13.4587 53.9434 13.6163 53.5339 13.8369C53.1243 14.0576 52.7253 14.3202 52.3368 14.6354C51.9482 14.9506 51.5492 15.3183 51.1396 15.7386V14.0891C51.1396 13.984 51.1186 13.8895 51.0661 13.8159C51.0136 13.7424 50.9191 13.6688 50.7931 13.6163C50.6566 13.5638 50.4886 13.5217 50.2786 13.5007C50.0686 13.4797 49.806 13.4587 49.491 13.4587C49.176 13.4587 48.9029 13.4692 48.6824 13.5007C48.4724 13.5217 48.2939 13.5638 48.1679 13.6163C48.0314 13.6688 47.9474 13.7319 47.8949 13.8159C47.8424 13.8895 47.8214 13.984 47.8214 14.0891V33.6413C47.8214 33.7463 47.8529 33.8409 47.9159 33.9249C47.9789 34.009 48.0839 34.0825 48.2414 34.1351C48.3884 34.1876 48.5984 34.2401 48.8399 34.2716C49.0815 34.3032 49.407 34.3137 49.7955 34.3137C50.1841 34.3137 50.4991 34.3032 50.7511 34.2716C51.0031 34.2401 51.2027 34.1981 51.3497 34.1351C51.4967 34.072 51.6122 34.009 51.6752 33.9249C51.7382 33.8409 51.7697 33.7463 51.7697 33.6413V27.0538C52.1057 27.3795 52.4313 27.6632 52.7463 27.9048C53.0613 28.1465 53.3764 28.3461 53.6914 28.5037C54.0064 28.6613 54.3424 28.7874 54.6785 28.8609C55.0145 28.9345 55.3925 28.9765 55.8021 28.9765C56.7892 28.9765 57.6607 28.7874 58.4168 28.4091C59.1729 28.0309 59.8134 27.4951 60.328 26.7912C60.8425 26.0873 61.2311 25.2362 61.4936 24.2381C61.7561 23.2401 61.8926 22.1159 61.8926 20.8761C61.8926 19.8255 61.7876 18.8274 61.5776 17.8924L61.5566 17.9029ZM57.0832 24.1961C56.8522 24.6164 56.5581 24.9631 56.2011 25.2257C55.8441 25.4884 55.403 25.6145 54.8885 25.6145C54.3424 25.6145 53.8174 25.4254 53.3238 25.0366C52.8198 24.6584 52.2948 24.1121 51.7382 23.4082V18.7959C52.0532 18.3756 52.3473 18.0289 52.6308 17.7453C52.9143 17.4616 53.1873 17.2305 53.4499 17.0518C53.7124 16.8732 53.9749 16.7472 54.2374 16.6631C54.5 16.5896 54.752 16.5475 55.0145 16.5475C55.5395 16.5475 55.9701 16.6736 56.3271 16.9363C56.6736 17.1884 56.9572 17.5351 57.1777 17.9659C57.3877 18.3967 57.5452 18.8799 57.6292 19.4368C57.7237 19.9831 57.7657 20.5609 57.7657 21.1493C57.7657 21.6851 57.7132 22.2209 57.5977 22.7463C57.4927 23.2821 57.3142 23.7549 57.0832 24.1856V24.1961Z" fill="#BBBCBE"/>
<path d="M78.6312 17.6402C78.3371 16.6736 77.8961 15.8646 77.287 15.2133C76.6885 14.5514 75.9219 14.0576 75.0083 13.7109C74.0842 13.3747 73.0342 13.196 71.7425 13.196C70.4509 13.196 69.3378 13.3852 68.3822 13.7739C67.4266 14.1626 66.6286 14.7089 65.988 15.4129C65.3475 16.1168 64.8749 16.9678 64.5494 17.9554C64.2344 18.943 64.0663 19.9936 64.0663 21.2228C64.0663 22.4521 64.2134 23.5552 64.5074 24.5218C64.8014 25.4884 65.253 26.2974 65.862 26.9488C66.4711 27.6107 67.2271 28.1045 68.1512 28.4512C69.0753 28.7979 70.1149 28.966 71.396 28.966C72.6771 28.966 73.8112 28.7769 74.7668 28.3881C75.7329 27.9994 76.531 27.4531 77.161 26.7386C77.8016 26.0242 78.2741 25.1837 78.5892 24.1961C78.9042 23.2085 79.0617 22.1264 79.0617 20.9287C79.0617 19.6889 78.9147 18.5858 78.6207 17.6192L78.6312 17.6402ZM74.8088 23.093C74.6723 23.6708 74.4623 24.1646 74.1788 24.5743C73.8952 24.9841 73.5382 25.2888 73.0972 25.5094C72.6561 25.73 72.1416 25.8351 71.543 25.8351C70.892 25.8351 70.3459 25.7195 69.9154 25.4779C69.4848 25.2362 69.1278 24.9105 68.8758 24.4798C68.6133 24.049 68.4347 23.5447 68.3192 22.9669C68.2037 22.389 68.1512 21.7482 68.1512 21.0652C68.1512 20.3193 68.2247 19.6574 68.3612 19.0796C68.4977 18.5017 68.7183 17.9974 68.9913 17.5877C69.2748 17.1779 69.6318 16.8627 70.0729 16.6421C70.5139 16.4215 71.0285 16.3164 71.606 16.3164C72.2676 16.3164 72.8136 16.432 73.2442 16.6736C73.6747 16.9153 74.0212 17.2515 74.2838 17.6822C74.5463 18.113 74.7248 18.6173 74.8403 19.1951C74.9453 19.773 75.0083 20.4139 75.0083 21.0968C75.0083 21.8427 74.9453 22.5046 74.8088 23.0825V23.093Z" fill="#BBBCBE"/>
<path d="M91.0222 14.005C91.0012 13.9 90.9802 13.8054 90.9487 13.7424C90.9172 13.6793 90.8752 13.6268 90.8227 13.5743C90.7702 13.5217 90.6757 13.4692 90.5497 13.4272C90.4237 13.3746 90.2767 13.3326 90.1087 13.3011C89.9406 13.2696 89.7831 13.2381 89.6256 13.2276C89.4681 13.2065 89.3211 13.2065 89.1846 13.2065C88.8906 13.2065 88.5965 13.2486 88.3025 13.3221C88.0085 13.3957 87.7144 13.5427 87.4204 13.7424C87.1264 13.942 86.8219 14.2151 86.4963 14.5513C86.1708 14.8875 85.8243 15.3183 85.4567 15.8436V14.0996C85.4567 13.9945 85.4357 13.9 85.3832 13.8264C85.3307 13.7529 85.2467 13.6793 85.1207 13.6268C85.0052 13.5743 84.8267 13.5322 84.6062 13.5112C84.3856 13.4902 84.1021 13.4692 83.7766 13.4692C83.4511 13.4692 83.178 13.4797 82.968 13.5112C82.758 13.5322 82.5795 13.5743 82.443 13.6268C82.3065 13.6793 82.2119 13.7424 82.1594 13.8264C82.1069 13.9 82.0859 13.9945 82.0859 14.0996V28.0939C82.0859 28.199 82.1174 28.2936 82.1805 28.3671C82.2435 28.4407 82.3485 28.5142 82.506 28.5667C82.653 28.6193 82.863 28.6613 83.1045 28.6823C83.3461 28.7033 83.6716 28.7243 84.0601 28.7243C84.4487 28.7243 84.7637 28.7138 85.0157 28.6823C85.2677 28.6508 85.4672 28.6193 85.6143 28.5667C85.7613 28.5142 85.8768 28.4512 85.9398 28.3671C86.0028 28.2936 86.0343 28.199 86.0343 28.0939V19.3737C86.3283 18.9115 86.6013 18.5227 86.8534 18.218C87.1054 17.9029 87.3574 17.6507 87.5884 17.4616C87.8195 17.2725 88.0505 17.1359 88.271 17.0413C88.4915 16.9468 88.712 16.9048 88.9326 16.9048C89.1216 16.9048 89.2896 16.9258 89.4471 16.9573C89.6046 16.9888 89.7516 17.0308 89.8776 17.0729C90.0037 17.1149 90.1297 17.1569 90.2347 17.1884C90.3397 17.2199 90.4342 17.241 90.5182 17.241C90.6232 17.241 90.7072 17.2199 90.7807 17.1674C90.8437 17.1149 90.9067 17.0203 90.9487 16.8837C90.9907 16.7472 91.0223 16.558 91.0433 16.3164C91.0643 16.0748 91.0748 15.7701 91.0748 15.3918C91.0748 15.0136 91.0747 14.7194 91.0537 14.4988C91.0432 14.2782 91.0222 14.1101 91.0012 14.005H91.0222Z" fill="#BBBCBE"/>
<path d="M101.082 16.7574C101.282 16.7574 101.429 16.6313 101.534 16.3897C101.639 16.1481 101.691 15.7383 101.691 15.1605C101.691 14.8558 101.681 14.6036 101.649 14.3935C101.628 14.1834 101.586 14.0153 101.534 13.8997C101.481 13.7841 101.418 13.7001 101.334 13.6371C101.261 13.5845 101.166 13.5635 101.061 13.5635H98.0159V10.4431C98.0159 10.3381 97.9844 10.2435 97.9214 10.1595C97.8584 10.0754 97.7534 10.0019 97.6063 9.94935C97.4593 9.88631 97.2598 9.84429 97.0078 9.82328C96.7453 9.80226 96.4197 9.78125 96.0417 9.78125C95.6637 9.78125 95.3486 9.79176 95.0966 9.82328C94.8446 9.85479 94.6346 9.89682 94.4876 9.94935C94.3406 10.0124 94.225 10.0754 94.1725 10.1595C94.12 10.2435 94.0885 10.3381 94.0885 10.4431V13.5635H92.4294C92.3244 13.5635 92.2299 13.5845 92.1564 13.6371C92.0828 13.6896 92.0093 13.7736 91.9568 13.8997C91.9043 14.0153 91.8623 14.1834 91.8413 14.3935C91.8098 14.6036 91.7993 14.8558 91.7993 15.1605C91.7993 15.7383 91.8518 16.1481 91.9568 16.3897C92.0618 16.6419 92.2089 16.7574 92.4084 16.7574H94.0885V23.9227C94.0885 24.7842 94.183 25.5197 94.351 26.15C94.5296 26.7804 94.8026 27.2952 95.1806 27.7155C95.5587 28.1252 96.0312 28.4404 96.6088 28.6295C97.1863 28.8291 97.8584 28.9237 98.6459 28.9237C98.94 28.9237 99.234 28.9027 99.5175 28.8712C99.801 28.8396 100.074 28.7976 100.316 28.7346C100.557 28.6715 100.778 28.6085 100.956 28.5245C101.135 28.4509 101.282 28.3564 101.376 28.2618C101.471 28.1672 101.544 27.9886 101.607 27.747C101.66 27.5053 101.691 27.1481 101.691 26.6859C101.691 26.3917 101.681 26.15 101.649 25.9609C101.628 25.7718 101.597 25.6247 101.565 25.5197C101.534 25.4146 101.492 25.3411 101.429 25.299C101.366 25.2675 101.313 25.2465 101.25 25.2465C101.177 25.2465 101.093 25.2675 101.009 25.299C100.914 25.3411 100.809 25.3726 100.683 25.4251C100.557 25.4776 100.4 25.5197 100.242 25.5512C100.074 25.5827 99.885 25.6037 99.675 25.6037C99.0555 25.6037 98.6249 25.4146 98.3939 25.0259C98.1524 24.6476 98.0369 24.0698 98.0369 23.3028V16.7259H101.093L101.082 16.7574Z" fill="#BBBCBE"/>
<path d="M115.426 15.1607C114.891 14.5513 114.208 14.0681 113.379 13.7214C112.549 13.3746 111.552 13.2065 110.375 13.2065C109.262 13.2065 108.275 13.3852 107.383 13.7529C106.501 14.1206 105.745 14.6459 105.135 15.3498C104.516 16.0432 104.043 16.8942 103.728 17.8923C103.403 18.8904 103.245 19.9516 103.245 21.2544C103.245 22.5571 103.403 23.7023 103.707 24.6689C104.012 25.646 104.484 26.4445 105.114 27.0853C105.745 27.7262 106.522 28.199 107.456 28.5142C108.391 28.8294 109.483 28.987 110.722 28.987C111.415 28.987 112.056 28.945 112.665 28.8504C113.274 28.7663 113.809 28.6613 114.282 28.5352C114.754 28.4196 115.143 28.2936 115.447 28.1675C115.752 28.0414 115.93 27.9469 116.004 27.8733C116.067 27.7998 116.13 27.7262 116.172 27.6422C116.214 27.5686 116.245 27.4636 116.266 27.348C116.287 27.2324 116.298 27.0958 116.319 26.9277C116.329 26.7702 116.34 26.5705 116.34 26.3394C116.34 26.0767 116.34 25.8561 116.319 25.688C116.308 25.5094 116.277 25.3833 116.235 25.2888C116.193 25.1942 116.14 25.1312 116.077 25.0891C116.014 25.0576 115.93 25.0366 115.846 25.0366C115.689 25.0366 115.489 25.0891 115.237 25.1837C114.985 25.2783 114.67 25.3938 114.292 25.5094C113.914 25.625 113.463 25.7405 112.938 25.8351C112.413 25.9297 111.793 25.9822 111.121 25.9822C110.449 25.9822 109.861 25.8876 109.378 25.7195C108.895 25.5409 108.496 25.2783 108.181 24.9421C107.876 24.6059 107.645 24.1856 107.509 23.7023C107.372 23.219 107.299 22.6727 107.299 22.0738H115.815C116.193 22.0738 116.487 21.9583 116.697 21.7271C116.907 21.496 117.023 21.1388 117.023 20.6555V20.0356C117.023 19.048 116.897 18.1445 116.645 17.304C116.392 16.4635 116.004 15.7386 115.468 15.1292L115.426 15.1607ZM107.488 18.155C107.614 17.7242 107.803 17.346 108.055 17.0308C108.307 16.7156 108.611 16.453 108.979 16.2744C109.346 16.0853 109.787 15.9907 110.291 15.9907C111.289 15.9907 112.024 16.3059 112.497 16.9363C112.969 17.5667 113.19 18.4387 113.158 19.5418H107.267C107.288 19.048 107.362 18.5858 107.498 18.155H107.488Z" fill="#BBBCBE"/>
<path d="M129.057 14.005C129.036 13.9 129.015 13.8054 128.983 13.7424C128.952 13.6793 128.91 13.6268 128.857 13.5743C128.794 13.5217 128.71 13.4692 128.584 13.4272C128.458 13.3746 128.311 13.3326 128.143 13.3011C127.975 13.2696 127.818 13.2381 127.66 13.2276C127.503 13.2065 127.356 13.2065 127.219 13.2065C126.925 13.2065 126.631 13.2486 126.337 13.3221C126.043 13.3957 125.749 13.5427 125.455 13.7424C125.161 13.942 124.856 14.2151 124.531 14.5513C124.205 14.8875 123.859 15.3183 123.491 15.8436V14.0996C123.491 13.9945 123.47 13.9 123.418 13.8264C123.365 13.7529 123.281 13.6793 123.155 13.6268C123.04 13.5743 122.861 13.5322 122.641 13.5112C122.42 13.4902 122.137 13.4692 121.811 13.4692C121.485 13.4692 121.212 13.4797 121.002 13.5112C120.792 13.5322 120.614 13.5743 120.477 13.6268C120.341 13.6793 120.246 13.7424 120.194 13.8264C120.141 13.9 120.12 13.9945 120.12 14.0996V28.0939C120.12 28.199 120.152 28.2936 120.215 28.3671C120.278 28.4407 120.383 28.5142 120.54 28.5667C120.687 28.6193 120.897 28.6613 121.139 28.6823C121.38 28.7033 121.706 28.7243 122.095 28.7243C122.483 28.7243 122.798 28.7138 123.05 28.6823C123.302 28.6508 123.502 28.6193 123.649 28.5667C123.796 28.5142 123.911 28.4512 123.974 28.3671C124.037 28.2936 124.069 28.199 124.069 28.0939V19.3737C124.363 18.9115 124.636 18.5227 124.888 18.218C125.14 17.9029 125.392 17.6507 125.623 17.4616C125.854 17.2725 126.085 17.1359 126.305 17.0413C126.526 16.9468 126.746 16.9048 126.967 16.9048C127.156 16.9048 127.324 16.9258 127.482 16.9573C127.639 16.9888 127.786 17.0308 127.912 17.0729C128.038 17.1149 128.164 17.1569 128.269 17.1884C128.374 17.2199 128.469 17.241 128.553 17.241C128.658 17.241 128.742 17.2199 128.815 17.1674C128.878 17.1149 128.941 17.0203 128.983 16.8837C129.025 16.7472 129.057 16.558 129.078 16.3164C129.099 16.0748 129.109 15.7701 129.109 15.3918C129.109 15.0136 129.109 14.7194 129.088 14.4988C129.078 14.2782 129.057 14.1101 129.036 14.005H129.057Z" fill="#BBBCBE"/>
<path d="M139.831 21.2751C139.505 20.9389 139.138 20.6552 138.728 20.4241C138.319 20.193 137.898 19.9933 137.478 19.8252C137.058 19.6466 136.638 19.489 136.229 19.342C135.819 19.1949 135.441 19.0373 135.126 18.8692C134.801 18.7011 134.538 18.512 134.339 18.2913C134.139 18.0707 134.045 17.7975 134.045 17.4718C134.045 17.2617 134.087 17.0621 134.171 16.8835C134.255 16.7049 134.381 16.5368 134.549 16.4002C134.717 16.2636 134.927 16.1586 135.189 16.085C135.452 16.0115 135.756 15.9799 136.113 15.9799C136.617 15.9799 137.058 16.0325 137.457 16.148C137.856 16.2636 138.192 16.3792 138.497 16.5053C138.791 16.6313 139.043 16.7469 139.243 16.8625C139.442 16.9675 139.589 17.0306 139.684 17.0306C139.768 17.0306 139.841 17.0096 139.904 16.978C139.967 16.9465 140.02 16.873 140.051 16.7679C140.083 16.6629 140.114 16.5158 140.125 16.3477C140.146 16.1691 140.146 15.9379 140.146 15.6543C140.146 15.4126 140.146 15.213 140.125 15.0554C140.104 14.8978 140.093 14.7612 140.072 14.6457C140.051 14.5406 140.02 14.446 139.978 14.362C139.936 14.2884 139.862 14.2044 139.768 14.1308C139.673 14.0573 139.505 13.9627 139.274 13.8472C139.043 13.7421 138.76 13.637 138.424 13.5425C138.087 13.4479 137.72 13.3639 137.3 13.3114C136.89 13.2483 136.46 13.2168 136.019 13.2168C135.137 13.2168 134.349 13.3219 133.646 13.5425C132.942 13.7631 132.343 14.0678 131.85 14.467C131.356 14.8663 130.978 15.3391 130.726 15.9064C130.464 16.4632 130.338 17.0936 130.338 17.7555C130.338 18.4174 130.432 18.9742 130.632 19.447C130.821 19.9198 131.083 20.319 131.398 20.6552C131.713 20.9914 132.081 21.2751 132.48 21.5063C132.879 21.7374 133.299 21.937 133.719 22.1156C134.139 22.2942 134.559 22.4518 134.958 22.5989C135.357 22.746 135.725 22.9036 136.04 23.0717C136.355 23.2398 136.617 23.4394 136.806 23.66C136.995 23.8807 137.1 24.1538 137.1 24.469C137.1 24.7422 137.048 24.9838 136.943 25.194C136.838 25.4041 136.68 25.5722 136.481 25.7088C136.281 25.8453 136.04 25.9504 135.756 26.024C135.483 26.0975 135.158 26.129 134.811 26.129C134.244 26.129 133.74 26.066 133.299 25.9294C132.858 25.7928 132.469 25.6457 132.133 25.4881C131.797 25.3305 131.514 25.1835 131.293 25.0574C131.073 24.9313 130.894 24.8578 130.779 24.8578C130.684 24.8578 130.6 24.8788 130.548 24.9103C130.485 24.9418 130.432 25.0154 130.39 25.1309C130.348 25.236 130.317 25.3831 130.296 25.5722C130.275 25.7508 130.264 26.0029 130.264 26.2971C130.264 26.7594 130.296 27.1061 130.359 27.3372C130.422 27.5684 130.506 27.747 130.621 27.852C130.737 27.9571 130.915 28.0832 131.167 28.2093C131.419 28.3353 131.734 28.4614 132.112 28.577C132.49 28.6926 132.911 28.7976 133.394 28.8712C133.866 28.9447 134.37 28.9867 134.895 28.9867C135.767 28.9867 136.565 28.8817 137.31 28.682C138.056 28.4824 138.697 28.1672 139.243 27.768C139.789 27.3583 140.209 26.854 140.503 26.2446C140.797 25.6352 140.944 24.9418 140.944 24.1433C140.944 23.5024 140.839 22.9456 140.65 22.4833C140.45 22.0211 140.188 21.6218 139.862 21.2856L139.831 21.2751Z" fill="#BBBCBE"/>
<path d="M156.905 0L140.618 9.64477L150.258 25.94L166.545 16.2952L156.905 0ZM146.803 8.77275L147.57 9.09844L148.116 8.47857L148.021 9.29806L148.788 9.62375L147.979 9.80236L147.906 10.6429L147.465 9.90742L146.656 10.086L147.202 9.46616L146.782 8.75173L146.803 8.77275ZM145.774 13.5846L146.32 12.9437L145.9 12.2293L146.667 12.555L147.213 11.9351L147.139 12.7546L147.906 13.0803L147.087 13.2589L147.013 14.0994L146.593 13.385L145.774 13.5636V13.5846ZM148.063 16.7365L147.99 17.556L147.549 16.8416L146.74 17.0202L147.286 16.3793L146.866 15.6649L147.633 15.9906L148.179 15.3707L148.105 16.1902L148.851 16.5369L148.042 16.7155L148.063 16.7365ZM149.292 6.20921L150.059 6.53491L150.605 5.91504L150.531 6.73453L151.298 7.08123L150.479 7.25984L150.405 8.07933L149.985 7.3649L149.166 7.54351L149.712 6.90263L149.292 6.1882V6.20921ZM150.626 19.216L150.531 20.0565L150.111 19.3211L149.292 19.4997L149.859 18.8798L149.418 18.1654L150.185 18.4911L150.731 17.8712L150.657 18.6907L151.424 19.0164L150.615 19.195L150.626 19.216ZM152.726 5.24263L153.492 5.58934L154.059 4.94846L153.965 5.78896L154.732 6.11466L153.923 6.29326L153.828 7.11275L153.408 6.39833L152.589 6.57693L153.156 5.95706L152.715 5.22162L152.726 5.24263ZM154.08 20.1195L154.007 20.939L153.566 20.2246L152.757 20.4032L153.303 19.7833L152.883 19.0479L153.65 19.3736L154.196 18.7537L154.101 19.5942L154.868 19.9199L154.059 20.0985L154.08 20.1195ZM156.202 6.13567L156.968 6.46136L157.514 5.84149L157.441 6.66098L158.186 6.98668L157.378 7.16528L157.304 8.00579L156.863 7.29136L156.055 7.46997L156.601 6.82908L156.181 6.11466L156.202 6.13567ZM157.514 19.1424L157.441 19.9829L157 19.2475L156.191 19.4261L156.737 18.8062L156.317 18.0918L157.084 18.4175L157.63 17.7976L157.556 18.6171L158.323 18.9428L157.504 19.1214L157.514 19.1424ZM158.743 8.64667L159.509 8.97236L160.055 8.33148L159.982 9.17198L160.749 9.49768L159.94 9.67629L159.845 10.5168L159.425 9.78135L158.606 9.95995L159.173 9.34008L158.732 8.62566L158.743 8.64667ZM160.024 16.5894L159.929 17.4299L159.509 16.7155L158.69 16.8941L159.257 16.2532L158.816 15.5388L159.583 15.8645L160.15 15.2446L160.055 16.0641L160.822 16.4108L160.013 16.5789L160.024 16.5894ZM160.833 13.9734L160.413 13.2379L159.593 13.4165L160.139 12.7967L159.719 12.0822L160.486 12.4079L161.032 11.788L160.959 12.6075L161.725 12.9332L160.906 13.1118L160.833 13.9523V13.9734Z" fill="#BBBCBE"/>
</svg>
