<?xml version="1.0" encoding="UTF-8"?>
<svg id="Ebene_2" data-name="Ebene 2" xmlns="http://www.w3.org/2000/svg" viewBox="0 0 154.38 154.38">
  <defs>
    <style>
      .cls-1 {
        fill: #24262c;
      }
    </style>
  </defs>
  <g id="Ebene_1-2" data-name="Ebene 1">
    <path class="cls-1" d="M154.38,16.35L138.03,0l-41.12,41.12c-15.6-8.54-35.57-6.2-48.78,7.01-13.21,13.21-15.55,33.18-7.01,48.78L0,138.03l16.35,16.35,41.12-41.12c15.6,8.54,35.57,6.21,48.78-7.01,13.21-13.21,15.55-33.18,7.01-48.78l41.12-41.12ZM89.9,89.9c-7.02,7.02-18.41,7.02-25.43,0-7.02-7.02-7.02-18.41,0-25.43s18.41-7.02,25.43,0c7.02,7.02,7.02,18.41,0,25.43Z"/>
  </g>
</svg>